<svg width="319" height="52" viewBox="0 0 319 52" fill="none" xmlns="http://www.w3.org/2000/svg">
<path d="M10.7471 3.56285L19.3908 2H38.4253M10.7471 3.56285L17.7356 4.84991M10.7471 3.56285L1 17.4447M38.4253 2L47.3448 3.56285M38.4253 2L40.2644 4.84991M47.3448 3.56285L40.2644 4.84991M47.3448 3.56285L57 17.5366M40.2644 4.84991L48.6322 16.7092M40.2644 4.84991H38.0575M17.7356 4.84991L9.27586 16.7092M17.7356 4.84991H19.8506M1 17.4447L9.27586 16.7092M1 17.4447V35.0957M9.27586 16.7092L16.1724 26.3621M48.6322 16.7092L57 17.5366M48.6322 16.7092L41.8276 26.3621M57 17.5366V35.0957M38.0575 4.84991V21.122M38.0575 4.84991H19.8506M38.0575 21.122H19.8506M38.0575 21.122L41.8276 26.3621M19.8506 21.122V4.84991M19.8506 21.122L16.1724 26.3621M16.1724 26.3621L19.8506 31.6942M16.1724 26.3621L9.27586 36.015M41.8276 26.3621L48.6322 35.9231M41.8276 26.3621L38.0575 31.6942H19.8506M57 35.0957L48.6322 35.9231M57 35.0957L47.3448 49.0694M48.6322 35.9231L39.9885 48.0582M19.8506 31.6942V47.4146M9.27586 36.015L1 35.0957M9.27586 36.015L17.8276 48.0582M1 35.0957L10.6552 49.1614M10.6552 49.1614L17.8276 48.0582M10.6552 49.1614L19.8506 51M17.8276 48.0582L19.8506 47.4146M17.8276 48.0582L19.8506 51M19.8506 47.4146H38.0575L39.9885 48.0582M39.9885 48.0582L38.0575 51M39.9885 48.0582L47.3448 49.0694M38.0575 51H19.8506M38.0575 51L47.3448 49.0694" stroke="url(#paint0_linear_102_7)" stroke-width="2"/>
<path d="M108 17.0678H127.556V12H108V17.0678Z" stroke="url(#paint1_linear_102_7)" stroke-width="2"/>
<path d="M108 22.5763H127.556V27.4237H113.778V32.9322H128V38H108V22.5763Z" stroke="url(#paint2_linear_102_7)" stroke-width="2"/>
<path d="M101.595 16.029H92.742V39H87.399V16.029H78.546V11.31H101.595V16.029Z" fill="#51B7D8"/>
<path d="M134.209 22.96C134.209 21.27 134.508 19.619 135.106 18.007C135.73 16.369 136.627 14.887 137.797 13.561C138.967 12.209 140.397 11.143 142.087 10.363C143.777 9.557 145.701 9.154 147.859 9.154C150.407 9.154 152.604 9.713 154.45 10.831C156.322 11.949 157.713 13.405 158.623 15.199L154.489 18.046C154.021 17.006 153.41 16.187 152.656 15.589C151.902 14.965 151.096 14.536 150.238 14.302C149.38 14.042 148.535 13.912 147.703 13.912C146.351 13.912 145.168 14.185 144.154 14.731C143.166 15.277 142.334 15.992 141.658 16.876C140.982 17.76 140.475 18.748 140.137 19.84C139.825 20.932 139.669 22.024 139.669 23.116C139.669 24.338 139.864 25.521 140.254 26.665C140.644 27.783 141.19 28.784 141.892 29.668C142.62 30.526 143.478 31.215 144.466 31.735C145.48 32.229 146.585 32.476 147.781 32.476C148.639 32.476 149.51 32.333 150.394 32.047C151.278 31.761 152.097 31.306 152.851 30.682C153.605 30.058 154.19 29.252 154.606 28.264L159.013 30.799C158.467 32.177 157.57 33.347 156.322 34.309C155.1 35.271 153.722 35.999 152.188 36.493C150.654 36.987 149.133 37.234 147.625 37.234C145.649 37.234 143.842 36.831 142.204 36.025C140.566 35.193 139.149 34.101 137.953 32.749C136.783 31.371 135.86 29.837 135.184 28.147C134.534 26.431 134.209 24.702 134.209 22.96Z" fill="#51B7D8"/>
<path d="M190.169 9.31V37H184.826V25.183H172.268V37H166.886V9.31H172.268V20.503H184.826V9.31H190.169Z" fill="#51B7D8"/>
<path d="M217.383 16.564C217.201 16.382 216.863 16.135 216.369 15.823C215.901 15.511 215.316 15.212 214.614 14.926C213.938 14.64 213.197 14.393 212.391 14.185C211.585 13.951 210.766 13.834 209.934 13.834C208.478 13.834 207.373 14.107 206.619 14.653C205.891 15.199 205.527 15.966 205.527 16.954C205.527 17.708 205.761 18.306 206.229 18.748C206.697 19.19 207.399 19.567 208.335 19.879C209.271 20.191 210.441 20.529 211.845 20.893C213.665 21.335 215.238 21.881 216.564 22.531C217.916 23.155 218.943 23.987 219.645 25.027C220.373 26.041 220.737 27.393 220.737 29.083C220.737 30.565 220.464 31.839 219.918 32.905C219.372 33.945 218.618 34.79 217.656 35.44C216.694 36.09 215.602 36.571 214.38 36.883C213.158 37.169 211.858 37.312 210.48 37.312C209.102 37.312 207.724 37.169 206.346 36.883C204.968 36.597 203.642 36.194 202.368 35.674C201.094 35.128 199.924 34.478 198.858 33.724L201.237 29.083C201.471 29.317 201.887 29.629 202.485 30.019C203.083 30.383 203.811 30.76 204.669 31.15C205.527 31.514 206.463 31.826 207.477 32.086C208.491 32.346 209.518 32.476 210.558 32.476C212.014 32.476 213.119 32.229 213.873 31.735C214.627 31.241 215.004 30.539 215.004 29.629C215.004 28.797 214.705 28.147 214.107 27.679C213.509 27.211 212.677 26.808 211.611 26.47C210.545 26.106 209.284 25.716 207.828 25.3C206.086 24.806 204.63 24.26 203.46 23.662C202.29 23.038 201.419 22.258 200.847 21.322C200.275 20.386 199.989 19.216 199.989 17.812C199.989 15.914 200.431 14.328 201.315 13.054C202.225 11.754 203.447 10.779 204.981 10.129C206.515 9.453 208.218 9.115 210.09 9.115C211.39 9.115 212.612 9.258 213.756 9.544C214.926 9.83 216.018 10.207 217.032 10.675C218.046 11.143 218.956 11.65 219.762 12.196L217.383 16.564Z" fill="#51B7D8"/>
<path d="M252.169 9.31V37H246.826V25.183H234.268V37H228.886V9.31H234.268V20.503H246.826V9.31H252.169Z" fill="#51B7D8"/>
<path d="M274.703 37.195C272.675 37.195 270.829 36.805 269.165 36.025C267.527 35.245 266.11 34.192 264.914 32.866C263.744 31.514 262.834 30.006 262.184 28.342C261.534 26.652 261.209 24.923 261.209 23.155C261.209 21.309 261.547 19.554 262.223 17.89C262.925 16.2 263.874 14.705 265.07 13.405C266.292 12.079 267.722 11.039 269.36 10.285C271.024 9.505 272.844 9.115 274.82 9.115C276.822 9.115 278.642 9.518 280.28 10.324C281.944 11.13 283.361 12.209 284.531 13.561C285.701 14.913 286.611 16.421 287.261 18.085C287.911 19.749 288.236 21.465 288.236 23.233C288.236 25.053 287.898 26.808 287.222 28.498C286.546 30.162 285.597 31.657 284.375 32.983C283.179 34.283 281.749 35.31 280.085 36.064C278.447 36.818 276.653 37.195 274.703 37.195ZM266.669 23.155C266.669 24.351 266.851 25.508 267.215 26.626C267.579 27.744 268.099 28.745 268.775 29.629C269.477 30.487 270.322 31.176 271.31 31.696C272.324 32.19 273.468 32.437 274.742 32.437C276.042 32.437 277.199 32.177 278.213 31.657C279.227 31.111 280.072 30.396 280.748 29.512C281.424 28.602 281.931 27.601 282.269 26.509C282.633 25.391 282.815 24.273 282.815 23.155C282.815 21.959 282.62 20.815 282.23 19.723C281.866 18.605 281.333 17.617 280.631 16.759C279.955 15.875 279.11 15.186 278.096 14.692C277.108 14.172 275.99 13.912 274.742 13.912C273.416 13.912 272.246 14.185 271.232 14.731C270.244 15.251 269.412 15.953 268.736 16.837C268.06 17.721 267.54 18.709 267.176 19.801C266.838 20.893 266.669 22.011 266.669 23.155Z" fill="#51B7D8"/>
<path d="M296.886 37V9.31H308.625C309.899 9.31 311.069 9.57 312.135 10.09C313.201 10.61 314.124 11.312 314.904 12.196C315.71 13.08 316.334 14.068 316.776 15.16C317.218 16.252 317.439 17.37 317.439 18.514C317.439 20.074 317.075 21.556 316.347 22.96C315.619 24.364 314.618 25.508 313.344 26.392C312.07 27.276 310.562 27.718 308.82 27.718H302.268V37H296.886ZM302.268 22.999H308.508C309.158 22.999 309.743 22.817 310.263 22.453C310.783 22.089 311.199 21.569 311.511 20.893C311.823 20.191 311.979 19.398 311.979 18.514C311.979 17.552 311.797 16.733 311.433 16.057C311.095 15.381 310.64 14.874 310.068 14.536C309.522 14.198 308.924 14.029 308.274 14.029H302.268V22.999Z" fill="#51B7D8"/>
<defs>
<linearGradient id="paint0_linear_102_7" x1="29" y1="2" x2="29" y2="51" gradientUnits="userSpaceOnUse">
<stop stop-color="#51B7D8"/>
<stop offset="1" stop-color="#004E67"/>
<stop offset="1" stop-color="#004E67"/>
</linearGradient>
<linearGradient id="paint1_linear_102_7" x1="118" y1="12" x2="118" y2="38" gradientUnits="userSpaceOnUse">
<stop stop-color="#51B7D8"/>
<stop offset="1" stop-color="#2E6071"/>
</linearGradient>
<linearGradient id="paint2_linear_102_7" x1="118" y1="12" x2="118" y2="38" gradientUnits="userSpaceOnUse">
<stop stop-color="#51B7D8"/>
<stop offset="1" stop-color="#2E6071"/>
</linearGradient>
</defs>
</svg>
